# xmcd CD database file
#
# Track frame offsets:
#	150
#	15981
#	35650
#	52996
#	69450
#	88851
#	104292
#	123048
#	136416
#	152623
#	167353
#	181397
#	195573
#	208321
#	224542
#	237956
#
# Disc length: 3391 seconds
#
# Revision: 0
# Processed by: cddbd v1.5.1PL2 Copyright (c) Steve Scherf et al.
# Submitted via: CDex 1.51
#
DISCID=d80d3d10
DTITLE=Kenny Rogers - Number Ones
DYEAR=2006
DGENRE=Country
TTITLE0=The Gambler
TTITLE1=Through The Years
TTITLE2=Lady
TTITLE3=Lucille
TTITLE4=Coward of the County
TTITLE5=I Don't Need You
TTITLE6=She Believes In Me
TTITLE7=Every Time Two Fools Collide
TTITLE8=You Decorated My Life
TTITLE9=Share Your Life With Me
TTITLE10=All I Ever Need Is You
TTITLE11=Daytime Friends
TTITLE12=Love Or Something Like It
TTITLE13=Love Will Turn You Around
TTITLE14=What Are We Doin' In Love
TTITLE15=Don't Fall In Love With A Dreamer
EXTD=YEAR: 2006
EXTT0=
EXTT1=
EXTT2=
EXTT3=
EXTT4=
EXTT5=
EXTT6=
EXTT7=
EXTT8=
EXTT9=
EXTT10=
EXTT11=
EXTT12=
EXTT13=
EXTT14=
EXTT15=
PLAYORDER=
